<svg width="329" height="62" viewBox="0 0 329 62" fill="none" xmlns="http://www.w3.org/2000/svg">
<path d="M147.042 25.889C146.994 23.8389 147.441 21.703 148.337 19.7123C149.249 17.6841 150.611 15.8529 152.273 14.4173C153.936 12.9817 155.844 11.9906 157.789 11.551C159.699 11.1198 161.604 11.2244 163.298 11.8539C163.666 11.9908 163.92 12.3804 163.93 12.8261C163.979 14.8763 163.531 17.0121 162.636 19.0028C162.339 19.6627 161.995 20.3014 161.608 20.9127C160.806 22.1804 159.821 23.3292 158.699 24.2978C157.037 25.7334 155.129 26.7246 153.183 27.1641C151.274 27.5953 149.369 27.4907 147.675 26.8612C147.306 26.7244 147.053 26.3347 147.042 25.889Z" fill="#A2CE86"/>
<path d="M163.778 12.2737C163.871 12.4342 163.926 12.6243 163.93 12.8261C163.979 14.8763 163.531 17.0121 162.636 19.0028C162.339 19.6627 161.995 20.3014 161.608 20.9127C160.806 22.1804 159.821 23.3292 158.699 24.2978C157.037 25.7334 155.129 26.7246 153.183 27.1641C151.274 27.5953 149.369 27.4907 147.675 26.8612C147.501 26.7968 147.354 26.6761 147.245 26.5203L163.778 12.2737Z" fill="#489B6D"/>
<path d="M147.548 46.0933C146.593 46.0933 145.819 45.2013 145.819 44.1009V3.85527C145.819 2.755 146.593 1.8629 147.548 1.8629C148.503 1.8629 149.277 2.7549 149.277 3.85527V44.1009C149.277 45.2012 148.503 46.0933 147.548 46.0933Z" fill="#007871"/>
<path d="M147.548 46.0933C146.593 46.0933 145.819 45.2013 145.819 44.1009V3.85527C145.819 2.755 146.593 1.8629 147.548 1.8629V46.0933Z" fill="#489B6D"/>
<path d="M160.063 50.8341C159.001 48.3448 157.359 46.2342 155.315 44.7681C153.272 43.302 150.919 42.5069 148.511 42.5069H146.709C144.302 42.5069 141.949 43.3019 139.905 44.7681C137.862 46.2342 136.22 48.3349 135.158 50.8241C134.956 51.297 134.98 51.8449 135.222 52.2922C135.464 52.7396 135.889 52.9999 136.346 52.9999H158.875C159.332 52.9999 159.757 52.7446 159.999 52.2972C160.241 51.85 160.265 51.307 160.063 50.8341Z" fill="#E56C1E"/>
<path d="M147.582 42.507L146.709 42.5069C144.302 42.5069 141.949 43.3019 139.905 44.7681C137.862 46.2342 136.22 48.3349 135.158 50.8241C134.956 51.297 134.98 51.8449 135.222 52.2922C135.464 52.7396 135.889 52.9999 136.346 52.9999L147.61 53L147.582 42.507Z" fill="#F2BA57"/>
<path d="M147.577 36.2126C147.644 33.4076 147.031 30.4854 145.806 27.7617C144.557 24.9867 142.695 22.4815 140.42 20.5172C138.145 18.553 135.535 17.1971 132.873 16.5958C130.26 16.0056 127.654 16.149 125.336 17.0101C124.832 17.1974 124.485 17.7306 124.471 18.3405C124.404 21.1455 125.017 24.0677 126.242 26.7914C126.648 27.6942 127.119 28.5681 127.648 29.4045C128.746 31.139 130.093 32.7108 131.628 34.0359C133.903 36.0001 136.513 37.356 139.175 37.9574C141.788 38.5475 144.394 38.4041 146.712 37.543C147.216 37.3557 147.563 36.8225 147.577 36.2126Z" fill="#489B6D"/>
<path d="M124.679 17.5843C124.553 17.8042 124.477 18.0642 124.471 18.3405C124.404 21.1455 125.017 24.0677 126.242 26.7914C126.648 27.6942 127.119 28.5681 127.648 29.4045C128.746 31.139 130.093 32.7108 131.628 34.0359C133.903 36.0001 136.513 37.356 139.175 37.9574C141.788 38.5475 144.394 38.4041 146.712 37.543C146.949 37.4549 147.151 37.2896 147.3 37.0763L124.679 17.5843Z" fill="#A2CE86"/>
<path d="M147.33 14.5989C147.379 12.5488 146.931 10.413 146.035 8.42227C145.123 6.39409 143.762 4.5629 142.099 3.12724C140.436 1.69169 138.529 0.700525 136.583 0.260998C134.673 -0.170248 132.768 -0.0655937 131.074 0.563885C130.706 0.700733 130.452 1.09037 130.442 1.5361C130.393 3.58623 130.841 5.72207 131.736 7.71278C132.033 8.37269 132.377 9.01138 132.764 9.62264C133.566 10.8904 134.551 12.0392 135.673 13.0078C137.336 14.4434 139.243 15.4345 141.189 15.8741C143.099 16.3053 145.004 16.2006 146.698 15.5712C147.066 15.4343 147.32 15.0448 147.33 14.5989Z" fill="#489B6D"/>
<path d="M130.594 0.983641C130.502 1.14419 130.447 1.33425 130.442 1.5361C130.393 3.58623 130.841 5.72207 131.736 7.71278C132.033 8.37269 132.377 9.01138 132.764 9.62264C133.566 10.8904 134.551 12.0392 135.673 13.0078C137.336 14.4434 139.243 15.4345 141.189 15.8741C143.099 16.3053 145.004 16.2006 146.698 15.5712C146.871 15.5068 147.018 15.3861 147.127 15.2303L130.594 0.983641Z" fill="#A2CE86"/>
<path d="M8.865 42.155C7.545 41.705 6.345 41.255 5.265 40.805C4.185 40.325 3.255 39.755 2.475 39.095C1.695 38.435 1.08 37.655 0.63 36.755C0.21 35.825 0 34.7 0 33.38C0 30.83 0.975 28.79 2.925 27.26C4.905 25.73 7.665 24.965 11.205 24.965C12.495 24.965 13.695 25.055 14.805 25.235C15.915 25.415 16.86 25.7 17.64 26.09C18.45 26.45 19.08 26.93 19.53 27.53C19.98 28.1 20.205 28.775 20.205 29.555C20.205 30.335 20.025 31.01 19.665 31.58C19.305 32.12 18.87 32.585 18.36 32.975C17.7 32.555 16.815 32.195 15.705 31.895C14.595 31.565 13.38 31.4 12.06 31.4C10.71 31.4 9.72 31.595 9.09 31.985C8.46 32.345 8.145 32.81 8.145 33.38C8.145 33.83 8.34 34.205 8.73 34.505C9.12 34.775 9.705 35.03 10.485 35.27L12.87 36.035C15.69 36.935 17.85 38.09 19.35 39.5C20.88 40.88 21.645 42.77 21.645 45.17C21.645 47.72 20.64 49.79 18.63 51.38C16.62 52.94 13.665 53.72 9.765 53.72C8.385 53.72 7.095 53.6 5.895 53.36C4.725 53.15 3.69 52.835 2.79 52.415C1.92 51.965 1.23 51.425 0.72 50.795C0.24 50.135 0 49.385 0 48.545C0 47.675 0.255 46.94 0.765 46.34C1.275 45.71 1.83 45.23 2.43 44.9C3.27 45.56 4.29 46.13 5.49 46.61C6.72 47.09 8.055 47.33 9.495 47.33C10.965 47.33 12 47.105 12.6 46.655C13.2 46.205 13.5 45.68 13.5 45.08C13.5 44.48 13.26 44.03 12.78 43.73C12.3 43.4 11.625 43.085 10.755 42.785L8.865 42.155Z" fill="#2CA24D"/>
<path d="M35.6783 30.455C36.9083 30.455 38.1083 30.635 39.2783 30.995C40.4783 31.325 41.5133 31.835 42.3833 32.525C43.2833 31.925 44.2883 31.43 45.3983 31.04C46.5383 30.65 47.9033 30.455 49.4933 30.455C50.6333 30.455 51.7433 30.605 52.8233 30.905C53.9333 31.205 54.9083 31.685 55.7483 32.345C56.6183 32.975 57.3083 33.83 57.8183 34.91C58.3283 35.96 58.5833 37.25 58.5833 38.78V52.955C58.2833 53.045 57.8033 53.135 57.1433 53.225C56.5133 53.315 55.8533 53.36 55.1633 53.36C54.5033 53.36 53.9033 53.315 53.3633 53.225C52.8533 53.135 52.4183 52.955 52.0583 52.685C51.6983 52.415 51.4133 52.055 51.2033 51.605C51.0233 51.125 50.9333 50.51 50.9333 49.76V39.005C50.9333 38.105 50.6783 37.46 50.1683 37.07C49.6583 36.65 48.9683 36.44 48.0983 36.44C47.6783 36.44 47.2283 36.545 46.7483 36.755C46.2683 36.935 45.9083 37.13 45.6683 37.34C45.6983 37.46 45.7133 37.58 45.7133 37.7C45.7133 37.79 45.7133 37.88 45.7133 37.97V52.955C45.3833 53.045 44.8883 53.135 44.2283 53.225C43.5983 53.315 42.9533 53.36 42.2933 53.36C41.6333 53.36 41.0333 53.315 40.4933 53.225C39.9833 53.135 39.5483 52.955 39.1883 52.685C38.8283 52.415 38.5433 52.055 38.3333 51.605C38.1533 51.125 38.0633 50.51 38.0633 49.76V39.005C38.0633 38.105 37.7783 37.46 37.2083 37.07C36.6683 36.65 36.0083 36.44 35.2283 36.44C34.6883 36.44 34.2233 36.53 33.8333 36.71C33.4433 36.86 33.1133 37.01 32.8433 37.16V52.955C32.5433 53.045 32.0633 53.135 31.4033 53.225C30.7733 53.315 30.1133 53.36 29.4233 53.36C28.7633 53.36 28.1633 53.315 27.6233 53.225C27.1133 53.135 26.6783 52.955 26.3183 52.685C25.9583 52.415 25.6733 52.055 25.4633 51.605C25.2833 51.125 25.1933 50.51 25.1933 49.76V36.17C25.1933 35.36 25.3583 34.715 25.6883 34.235C26.0483 33.755 26.5283 33.305 27.1283 32.885C28.1483 32.165 29.4083 31.58 30.9083 31.13C32.4383 30.68 34.0283 30.455 35.6783 30.455Z" fill="#2CA24D"/>
<path d="M72.61 48.14C73.12 48.14 73.675 48.095 74.275 48.005C74.905 47.885 75.37 47.735 75.67 47.555V43.955L72.43 44.225C71.59 44.285 70.9 44.465 70.36 44.765C69.82 45.065 69.55 45.515 69.55 46.115C69.55 46.715 69.775 47.21 70.225 47.6C70.705 47.96 71.5 48.14 72.61 48.14ZM72.25 30.455C73.87 30.455 75.34 30.62 76.66 30.95C78.01 31.28 79.15 31.79 80.08 32.48C81.04 33.14 81.775 33.995 82.285 35.045C82.795 36.065 83.05 37.28 83.05 38.69V48.77C83.05 49.55 82.825 50.195 82.375 50.705C81.955 51.185 81.445 51.605 80.845 51.965C78.895 53.135 76.15 53.72 72.61 53.72C71.02 53.72 69.58 53.57 68.29 53.27C67.03 52.97 65.935 52.52 65.005 51.92C64.105 51.32 63.4 50.555 62.89 49.625C62.41 48.695 62.17 47.615 62.17 46.385C62.17 44.315 62.785 42.725 64.015 41.615C65.245 40.505 67.15 39.815 69.73 39.545L75.625 38.915V38.6C75.625 37.73 75.235 37.115 74.455 36.755C73.705 36.365 72.61 36.17 71.17 36.17C70.03 36.17 68.92 36.29 67.84 36.53C66.76 36.77 65.785 37.07 64.915 37.43C64.525 37.16 64.195 36.755 63.925 36.215C63.655 35.645 63.52 35.06 63.52 34.46C63.52 33.68 63.7 33.065 64.06 32.615C64.45 32.135 65.035 31.73 65.815 31.4C66.685 31.07 67.705 30.83 68.875 30.68C70.075 30.53 71.2 30.455 72.25 30.455Z" fill="#2CA24D"/>
<path d="M95.3775 52.955C95.0775 53.045 94.5975 53.135 93.9375 53.225C93.3075 53.315 92.6475 53.36 91.9575 53.36C91.2975 53.36 90.6975 53.315 90.1575 53.225C89.6475 53.135 89.2125 52.955 88.8525 52.685C88.4925 52.415 88.2075 52.055 87.9975 51.605C87.8175 51.125 87.7275 50.51 87.7275 49.76V36.26C87.7275 35.57 87.8475 34.985 88.0875 34.505C88.3575 33.995 88.7325 33.545 89.2125 33.155C89.6925 32.765 90.2775 32.42 90.9675 32.12C91.6875 31.79 92.4525 31.505 93.2625 31.265C94.0725 31.025 94.9125 30.845 95.7825 30.725C96.6525 30.575 97.5225 30.5 98.3925 30.5C99.8325 30.5 100.973 30.785 101.812 31.355C102.652 31.895 103.073 32.795 103.073 34.055C103.073 34.475 103.013 34.895 102.893 35.315C102.773 35.705 102.622 36.065 102.442 36.395C101.812 36.395 101.167 36.425 100.507 36.485C99.8475 36.545 99.2025 36.635 98.5725 36.755C97.9425 36.875 97.3425 37.01 96.7725 37.16C96.2325 37.28 95.7675 37.43 95.3775 37.61V52.955Z" fill="#2CA24D"/>
<path d="M113.878 45.485C113.878 46.265 114.118 46.82 114.598 47.15C115.108 47.48 115.813 47.645 116.713 47.645C117.163 47.645 117.628 47.615 118.108 47.555C118.588 47.465 119.008 47.36 119.368 47.24C119.638 47.57 119.863 47.945 120.043 48.365C120.253 48.755 120.358 49.235 120.358 49.805C120.358 50.945 119.923 51.875 119.053 52.595C118.213 53.315 116.713 53.675 114.553 53.675C111.913 53.675 109.873 53.075 108.433 51.875C107.023 50.675 106.318 48.725 106.318 46.025V26.765C106.648 26.675 107.113 26.585 107.713 26.495C108.343 26.375 109.003 26.315 109.693 26.315C111.013 26.315 112.033 26.555 112.753 27.035C113.503 27.485 113.878 28.46 113.878 29.96V32.84H119.773C119.953 33.17 120.118 33.59 120.268 34.1C120.448 34.58 120.538 35.12 120.538 35.72C120.538 36.77 120.298 37.535 119.818 38.015C119.368 38.465 118.753 38.69 117.973 38.69H113.878V45.485Z" fill="#2CA24D"/>
<path d="M169.63 31.13C169.63 29.6 169.885 28.295 170.395 27.215C170.935 26.105 171.655 25.205 172.555 24.515C173.455 23.795 174.505 23.27 175.705 22.94C176.935 22.61 178.24 22.445 179.62 22.445C181.84 22.445 183.475 22.745 184.525 23.345C185.575 23.915 186.1 24.905 186.1 26.315C186.1 26.915 185.965 27.455 185.695 27.935C185.455 28.415 185.185 28.775 184.885 29.015C184.315 28.865 183.715 28.745 183.085 28.655C182.485 28.535 181.78 28.475 180.97 28.475C179.68 28.475 178.675 28.7 177.955 29.15C177.235 29.57 176.875 30.32 176.875 31.4V32.84H184.255C184.435 33.17 184.6 33.59 184.75 34.1C184.93 34.58 185.02 35.12 185.02 35.72C185.02 36.77 184.78 37.535 184.3 38.015C183.85 38.465 183.235 38.69 182.455 38.69H177.28V52.955C176.98 53.045 176.5 53.135 175.84 53.225C175.21 53.315 174.55 53.36 173.86 53.36C173.2 53.36 172.6 53.315 172.06 53.225C171.55 53.135 171.115 52.955 170.755 52.685C170.395 52.415 170.11 52.055 169.9 51.605C169.72 51.125 169.63 50.51 169.63 49.76V31.13Z" fill="#2CA24D"/>
<path d="M197.357 48.14C197.867 48.14 198.422 48.095 199.022 48.005C199.652 47.885 200.117 47.735 200.417 47.555V43.955L197.177 44.225C196.337 44.285 195.647 44.465 195.107 44.765C194.567 45.065 194.297 45.515 194.297 46.115C194.297 46.715 194.522 47.21 194.972 47.6C195.452 47.96 196.247 48.14 197.357 48.14ZM196.997 30.455C198.617 30.455 200.087 30.62 201.407 30.95C202.757 31.28 203.897 31.79 204.827 32.48C205.787 33.14 206.522 33.995 207.032 35.045C207.542 36.065 207.797 37.28 207.797 38.69V48.77C207.797 49.55 207.572 50.195 207.122 50.705C206.702 51.185 206.192 51.605 205.592 51.965C203.642 53.135 200.897 53.72 197.357 53.72C195.767 53.72 194.327 53.57 193.037 53.27C191.777 52.97 190.682 52.52 189.752 51.92C188.852 51.32 188.147 50.555 187.637 49.625C187.157 48.695 186.917 47.615 186.917 46.385C186.917 44.315 187.532 42.725 188.762 41.615C189.992 40.505 191.897 39.815 194.477 39.545L200.372 38.915V38.6C200.372 37.73 199.982 37.115 199.202 36.755C198.452 36.365 197.357 36.17 195.917 36.17C194.777 36.17 193.667 36.29 192.587 36.53C191.507 36.77 190.532 37.07 189.662 37.43C189.272 37.16 188.942 36.755 188.672 36.215C188.402 35.645 188.267 35.06 188.267 34.46C188.267 33.68 188.447 33.065 188.807 32.615C189.197 32.135 189.782 31.73 190.562 31.4C191.432 31.07 192.452 30.83 193.622 30.68C194.822 30.53 195.947 30.455 196.997 30.455Z" fill="#2CA24D"/>
<path d="M220.125 52.955C219.825 53.045 219.345 53.135 218.685 53.225C218.055 53.315 217.395 53.36 216.705 53.36C216.045 53.36 215.445 53.315 214.905 53.225C214.395 53.135 213.96 52.955 213.6 52.685C213.24 52.415 212.955 52.055 212.745 51.605C212.565 51.125 212.475 50.51 212.475 49.76V36.26C212.475 35.57 212.595 34.985 212.835 34.505C213.105 33.995 213.48 33.545 213.96 33.155C214.44 32.765 215.025 32.42 215.715 32.12C216.435 31.79 217.2 31.505 218.01 31.265C218.82 31.025 219.66 30.845 220.53 30.725C221.4 30.575 222.27 30.5 223.14 30.5C224.58 30.5 225.72 30.785 226.56 31.355C227.4 31.895 227.82 32.795 227.82 34.055C227.82 34.475 227.76 34.895 227.64 35.315C227.52 35.705 227.37 36.065 227.19 36.395C226.56 36.395 225.915 36.425 225.255 36.485C224.595 36.545 223.95 36.635 223.32 36.755C222.69 36.875 222.09 37.01 221.52 37.16C220.98 37.28 220.515 37.43 220.125 37.61V52.955Z" fill="#2CA24D"/>
<path d="M241.021 30.455C242.251 30.455 243.451 30.635 244.621 30.995C245.821 31.325 246.856 31.835 247.726 32.525C248.626 31.925 249.631 31.43 250.741 31.04C251.881 30.65 253.246 30.455 254.836 30.455C255.976 30.455 257.086 30.605 258.166 30.905C259.276 31.205 260.251 31.685 261.091 32.345C261.961 32.975 262.651 33.83 263.161 34.91C263.671 35.96 263.926 37.25 263.926 38.78V52.955C263.626 53.045 263.146 53.135 262.486 53.225C261.856 53.315 261.196 53.36 260.506 53.36C259.846 53.36 259.246 53.315 258.706 53.225C258.196 53.135 257.761 52.955 257.401 52.685C257.041 52.415 256.756 52.055 256.546 51.605C256.366 51.125 256.276 50.51 256.276 49.76V39.005C256.276 38.105 256.021 37.46 255.511 37.07C255.001 36.65 254.311 36.44 253.441 36.44C253.021 36.44 252.571 36.545 252.091 36.755C251.611 36.935 251.251 37.13 251.011 37.34C251.041 37.46 251.056 37.58 251.056 37.7C251.056 37.79 251.056 37.88 251.056 37.97V52.955C250.726 53.045 250.231 53.135 249.571 53.225C248.941 53.315 248.296 53.36 247.636 53.36C246.976 53.36 246.376 53.315 245.836 53.225C245.326 53.135 244.891 52.955 244.531 52.685C244.171 52.415 243.886 52.055 243.676 51.605C243.496 51.125 243.406 50.51 243.406 49.76V39.005C243.406 38.105 243.121 37.46 242.551 37.07C242.011 36.65 241.351 36.44 240.571 36.44C240.031 36.44 239.566 36.53 239.176 36.71C238.786 36.86 238.456 37.01 238.186 37.16V52.955C237.886 53.045 237.406 53.135 236.746 53.225C236.116 53.315 235.456 53.36 234.766 53.36C234.106 53.36 233.506 53.315 232.966 53.225C232.456 53.135 232.021 52.955 231.661 52.685C231.301 52.415 231.016 52.055 230.806 51.605C230.626 51.125 230.536 50.51 230.536 49.76V36.17C230.536 35.36 230.701 34.715 231.031 34.235C231.391 33.755 231.871 33.305 232.471 32.885C233.491 32.165 234.751 31.58 236.251 31.13C237.781 30.68 239.371 30.455 241.021 30.455Z" fill="#2CA24D"/>
<path d="M268.413 25.055C268.413 23.915 268.788 22.955 269.538 22.175C270.318 21.395 271.338 21.005 272.598 21.005C273.858 21.005 274.863 21.395 275.613 22.175C276.393 22.955 276.783 23.915 276.783 25.055C276.783 26.195 276.393 27.155 275.613 27.935C274.863 28.715 273.858 29.105 272.598 29.105C271.338 29.105 270.318 28.715 269.538 27.935C268.788 27.155 268.413 26.195 268.413 25.055ZM276.423 52.955C276.093 53.015 275.598 53.09 274.938 53.18C274.308 53.3 273.663 53.36 273.003 53.36C272.343 53.36 271.743 53.315 271.203 53.225C270.693 53.135 270.258 52.955 269.898 52.685C269.538 52.415 269.253 52.055 269.043 51.605C268.863 51.125 268.773 50.51 268.773 49.76V31.445C269.103 31.385 269.583 31.31 270.213 31.22C270.873 31.1 271.533 31.04 272.193 31.04C272.853 31.04 273.438 31.085 273.948 31.175C274.488 31.265 274.938 31.445 275.298 31.715C275.658 31.985 275.928 32.36 276.108 32.84C276.318 33.29 276.423 33.89 276.423 34.64V52.955Z" fill="#2CA24D"/>
<path d="M295.153 39.14C295.153 38.21 294.883 37.535 294.343 37.115C293.833 36.665 293.128 36.44 292.228 36.44C291.628 36.44 291.028 36.515 290.428 36.665C289.858 36.815 289.363 37.04 288.943 37.34V52.955C288.643 53.045 288.163 53.135 287.503 53.225C286.873 53.315 286.213 53.36 285.523 53.36C284.863 53.36 284.263 53.315 283.723 53.225C283.213 53.135 282.778 52.955 282.418 52.685C282.058 52.415 281.773 52.055 281.563 51.605C281.383 51.125 281.293 50.51 281.293 49.76V36.26C281.293 35.45 281.458 34.79 281.788 34.28C282.148 33.77 282.628 33.305 283.228 32.885C284.248 32.165 285.523 31.58 287.053 31.13C288.613 30.68 290.338 30.455 292.228 30.455C295.618 30.455 298.228 31.205 300.058 32.705C301.888 34.175 302.803 36.23 302.803 38.87V52.955C302.503 53.045 302.023 53.135 301.363 53.225C300.733 53.315 300.073 53.36 299.383 53.36C298.723 53.36 298.123 53.315 297.583 53.225C297.073 53.135 296.638 52.955 296.278 52.685C295.918 52.415 295.633 52.055 295.423 51.605C295.243 51.125 295.153 50.51 295.153 49.76V39.14Z" fill="#2CA24D"/>
<path d="M318.193 30.455C319.903 30.455 321.448 30.68 322.828 31.13C324.238 31.55 325.423 32.105 326.383 32.795C326.983 33.215 327.448 33.68 327.778 34.19C328.138 34.7 328.318 35.36 328.318 36.17V51.92C328.318 53.51 328.018 54.875 327.418 56.015C326.818 57.185 325.993 58.145 324.943 58.895C323.923 59.675 322.708 60.245 321.298 60.605C319.918 60.965 318.433 61.145 316.843 61.145C314.113 61.145 311.968 60.77 310.408 60.02C308.848 59.3 308.068 58.115 308.068 56.465C308.068 55.775 308.203 55.16 308.473 54.62C308.773 54.11 309.103 53.72 309.463 53.45C310.333 53.93 311.308 54.335 312.388 54.665C313.498 54.995 314.638 55.16 315.808 55.16C317.428 55.16 318.718 54.89 319.678 54.35C320.638 53.81 321.118 52.94 321.118 51.74V51.02C319.888 51.56 318.388 51.83 316.618 51.83C315.268 51.83 313.978 51.635 312.748 51.245C311.548 50.825 310.483 50.195 309.553 49.355C308.653 48.485 307.918 47.375 307.348 46.025C306.808 44.675 306.538 43.07 306.538 41.21C306.538 39.38 306.823 37.79 307.393 36.44C307.993 35.09 308.803 33.98 309.823 33.11C310.873 32.21 312.103 31.55 313.513 31.13C314.953 30.68 316.513 30.455 318.193 30.455ZM320.983 36.98C320.773 36.86 320.458 36.74 320.038 36.62C319.648 36.5 319.153 36.44 318.553 36.44C317.083 36.44 315.973 36.86 315.223 37.7C314.503 38.51 314.143 39.68 314.143 41.21C314.143 42.95 314.503 44.21 315.223 44.99C315.973 45.74 316.918 46.115 318.058 46.115C319.288 46.115 320.263 45.83 320.983 45.26V36.98Z" fill="#2CA24D"/>
</svg>